<svg xmlns="http://www.w3.org/2000/svg" fill="none" viewBox="0 0 100 100"><g clip-path="url(#a)"><path fill="#777" d="M36.8 77.3s-3.8 2.2 2.7 3c7.9.9 12 .8 20.7-.9 0 0 2.3 1.4 5.5 2.7-19.6 8.4-44.3-.5-28.9-4.8m-2.4-10.9s-4.3 3.2 2.3 3.8c8.5.9 15.1.9 26.7-1.3 0 0 1.6 1.6 4.1 2.5-23.7 7-50.1.6-33.1-5"/><path fill="#878787" d="M54.5 47.8c4.8 5.6-1.3 10.6-1.3 10.6s12.2-6.3 6.6-14.2c-5.3-7.4-9.3-11.1 12.5-23.7.1-.1-34.1 8.5-17.8 27.3"/><path fill="#777" d="M80.4 85.4s2.8 2.3-3.1 4.1c-11.3 3.4-47 4.5-57 .1-3.6-1.6 3.1-3.7 5.2-4.2 2.2-.5 3.4-.4 3.4-.4-4-2.8-25.6 5.5-11 7.9 40 6.6 72.9-2.8 62.5-7.5M38.6 55s-18.2 4.3-6.4 5.9c5 .7 14.8.5 24-.3 7.5-.6 15.1-2 15.1-2s-2.7 1.1-4.6 2.4c-18.5 4.9-54.1 2.6-43.8-2.4 8.6-4 15.7-3.6 15.7-3.6m32.6 18.3c18.8-9.7 10.1-19.1 4-17.9-1.5.3-2.1.6-2.1.6s.6-.9 1.6-1.2c12-4.2 21.2 12.4-3.9 19 0 0 .3-.3.4-.5"/><path fill="#878787" d="M59.9 0S70.3 10.4 50 26.4c-16.2 12.8-3.7 20.1 0 28.5-9.5-8.5-16.4-16.1-11.8-23.1C45.1 21.5 64.1 16.5 59.9 0"/><path fill="#777" d="M40.4 99.7c18 1.2 45.7-.6 46.3-9.2 0 0-1.3 3.2-14.9 5.8-15.4 2.9-34.3 2.6-45.6.7.1 0 2.4 1.9 14.2 2.7"/></g><defs><clipPath id="a"><path fill="#fff" d="M0 0h100v100H0z"/></clipPath></defs></svg>