<svg xmlns="http://www.w3.org/2000/svg" fill="none" viewBox="0 0 100 100"><g clip-path="url(#a)"><path fill="#797979" d="m50.1.3 2.7 5c.6.9 1.2 1.7 2 2.5 2.2 2.2 4.3 4.6 6.3 7.1 4.5 5.9 7.6 12.5 9.7 19.7 1.3 4.4 2 8.8 2.1 13.3.2 13.5-4.4 25.1-13.7 34.7-1.5 1.5-3.2 2.9-4.9 4.2-.9 0-1.4-.7-1.7-1.4-.7-1.2-1.2-2.5-1.4-3.9-.3-1.6-.5-3.3-.4-5v-.8c-.2 0-1-75-.7-75.4"/><path fill="#8e8e8e" d="M50.1.1c-.1-.2-.2-.1-.3.1.1 1.1-.3 2.1-.9 3-.7.9-1.5 1.6-2.4 2.4-4.8 4.2-8.7 9.3-11.7 14.9-4.1 7.6-6.2 15.8-6.7 24.4-.3 3.1 1 14.1 2 17.2 2.7 8.4 7.5 15.4 13.7 21.5 1.5 1.5 3.2 2.8 4.8 4.1.5 0 .5-.4.7-.8.2-.7.4-1.4.5-2.1l1.1-8.2z"/><path fill="silver" d="M52.8 90.1c.1-1.2.7-2.3 1.4-3.3-.7-.3-1.1-.8-1.5-1.4-.3-.6-.6-1.2-.8-1.8-.8-2.3-.9-4.7-1.1-7v-1.4c-.3.2-.3 2.1-.3 2.3-.2 2.5-.5 4.9-1 7.4-.2 1-.3 2-.9 2.8 0 .1 0 .2.1.4 1 2.9 1.2 5.8 1.4 8.8V98c0 1.3-.1 1 1 1.5.4.2.9.2 1.4.5.3 0 .4-.3.4-.5l-.2-1.8v-5c-.2-.9 0-1.7.1-2.6"/></g><defs><clipPath id="a"><path fill="#fff" d="M0 0h100v100H0z"/></clipPath></defs></svg>