<svg xmlns="http://www.w3.org/2000/svg" fill="none" viewBox="0 0 100 100"><g fill="#3d3d3d" clip-path="url(#a)"><path d="M92.1 77.1c-5.4-.1-9.7.4-13.2 1.9-1 .4-2.7.4-2.8 1.7.5.6.6 1.5 1.1 2.2.8 1.4 2.2 3.2 3.5 4.2 1.4 1.1 2.9 2.2 4.4 3.2 2.7 1.7 5.6 2.6 8.2 4.3 1.5 1 3 2.2 4.5 3.2.7.6 1.2 1.4 2.2 1.8v-.2c-.5-.6-.6-1.5-1.1-2.2-.7-.7-1.4-1.3-2-2-2-2.7-4.4-5-7.1-7-2.2-1.5-6.9-3.6-7.8-6.1l-.1-.1c1.5-.1 3.3-.7 4.7-1.1 2.3-.6 4.4-.5 6.8-1.1 1.1-.3 2.2-.6 3.3-1v-.6c-1.2-1.2-2.1-2.9-3.4-4.1-3.5-3-7.3-6-11.2-8.5-2.1-1.4-4.8-2.3-7.1-3.5-.8-.4-2.2-.6-2.7-1.3-1.2-1.5-1.9-3.5-2.8-5.3-2-3.8-3.9-8-5.6-12-1.2-2.7-2-5.4-3.5-7.9-7-11.7-14.6-18.8-26.3-25.8-2.5-1.4-5.5-2.1-8.7-2.8l-5.1-.3c-1.1-.5-2.2-1.8-3.1-2.4C13.3 1.8 3.3-3.6.4 3.5-1.4 8 3.1 12.4 4.7 14.7c1.2 1.6 2.7 3.4 3.5 5.2.5 1.2.6 2.4 1.1 3.7 1.1 3 2.1 6.4 3.5 9.3.7 1.4 1.6 3 2.5 4.3.5.8 1.5 1.1 1.7 2.3-1 1.4-1 3.5-1.6 5.2-2.4 7.8-1.5 17.5 2 23.2 1.1 1.7 3.7 5.5 7.1 4.1 3.1-1.2 2.4-5.2 3.3-8.6.2-.8.1-1.4.5-1.9v.1c1 1.9 1.9 3.8 2.8 5.7 2.1 3.4 5.8 6.9 8.8 9.3 1.6 1.2 2.9 3.4 5 4.1v-.2h-.1c-.4-.6-1-.9-1.6-1.4-1.2-1.2-2.6-2.8-3.5-4.1-2.9-3.9-5.4-8.1-7.6-12.6-1.1-2.1-2-4.5-2.9-6.6-.4-.8-.4-2.1-1.1-2.5-1 1.5-2.5 2.8-3.3 4.7-1.3 3-1.4 6.6-1.9 10.4-.3.1-.1 0-.3.1-2.2-.6-2.9-2.8-3.7-4.8-2-4.9-2.4-12.8-.6-18.4.5-1.5 2.5-6 1.7-7.4-.4-1.3-1.8-2.1-2.5-3.1-.9-1.3-1.8-3-2.4-4.4-1.6-3.9-2.4-8.1-4.2-12-.9-1.9-2.4-3.7-3.5-5.4-1.3-1.9-2.7-3.2-3.7-5.4-.3-.8-.8-2-.3-2.8.1-.6.4-.8 1-.9.9-.8 3.4.2 4.3.6 2.5 1 4.6 2 6.7 3.5 1 .7 2 2 3.2 2.3H20c2.2.5 4.6.1 6.7.8 3.6 1.2 6.9 2.9 9.8 4.8 8.9 5.7 16.3 13.9 21.2 23.6.8 1.6 1.2 3 1.9 4.7 1.4 3.4 3.2 6.8 4.6 10.1 1.4 3.2 2.8 6.6 4.8 9.3 1 1.4 5.1 2.2 6.9 3 1.4.6 3.5 1.2 4.7 1.9 2.3 1.4 4.6 3.1 6.8 4.7 1.1.8 4.5 2.5 4.7 3.9"/><path d="M22.7 17.1c-1.2 0-2 .1-2.8.3v.1h.1c.5 1.1 1.5 1.9 2.2 2.8.5 1.1 1 2.2 1.6 3.3l.1-.1c1-.7 1.4-1.8 1.4-3.5-.4-.5-.5-1-.8-1.4-.3-.6-1.2-1-1.8-1.5"/></g><defs><clipPath id="a"><path fill="#fff" d="M0 0h100v100H0z"/></clipPath></defs></svg>