<svg xmlns="http://www.w3.org/2000/svg" fill="none" viewBox="0 0 100 100"><g clip-path="url(#a)"><path fill="url(#b)" d="M49.6 0C24.3 0 25.8 11 25.8 11v11.4H50v3.4H16.2S0 24 0 49.6s14.2 24.7 14.2 24.7h8.5V62.4s-.5-14.2 14-14.2h24s13.5.2 13.5-13V13.3c-.1 0 2-13.3-24.6-13.3M36.3 7.7c.6 0 1.1.1 1.7.3.5.2 1 .5 1.4.9s.7.9.9 1.4.3 1.1.3 1.7-.1 1.1-.3 1.7c-.2.5-.5 1-.9 1.4s-.9.7-1.4.9-1.1.3-1.7.3-1.1-.1-1.7-.3-1-.5-1.4-.9-.7-.9-.9-1.4-.3-1.1-.3-1.7.1-1.1.3-1.7c.2-.5.5-1 .9-1.4s.9-.7 1.4-.9 1.1-.3 1.7-.3"/><path fill="url(#c)" d="M50.4 99.5c25.4 0 23.8-11 23.8-11V77.1H49.9v-3.4h33.8s16.2 1.8 16.2-23.8-14.2-24.7-14.2-24.7h-8.5V37s.5 14.2-14 14.2h-24s-13.5-.2-13.5 13v21.9c.2.1-1.9 13.4 24.7 13.4m13.3-7.7c-.6 0-1.1-.1-1.7-.3-.5-.2-1-.5-1.4-.9s-.7-.9-.9-1.4-.3-1.1-.3-1.7.1-1.1.3-1.7c.2-.5.5-1 .9-1.4s.9-.7 1.4-.9 1.1-.3 1.7-.3 1.1.1 1.7.3c.5.2 1 .5 1.4.9s.7.9.9 1.4.3 1.1.3 1.7-.1 1.1-.3 1.7c-.2.5-.5 1-.9 1.4s-.9.7-1.4.9-1.1.3-1.7.3"/></g><defs><linearGradient id="b" x1="9.308" x2="58.865" y1="9.253" y2="58.316" gradientUnits="userSpaceOnUse"><stop stop-color="#6f6f6f"/><stop offset="1" stop-color="#5e5e5e"/></linearGradient><linearGradient id="c" x1="39.745" x2="92.964" y1="40.752" y2="91.061" gradientUnits="userSpaceOnUse"><stop stop-color="#dadada"/><stop offset="1" stop-color="#c5c5c5"/></linearGradient><clipPath id="a"><path fill="#fff" d="M0 0h100v100H0z"/></clipPath></defs></svg>