<svg xmlns="http://www.w3.org/2000/svg" fill="none" viewBox="0 0 100 100"><path fill="#b9b9b9" d="M49.802 58.8c4.852 0 8.713-3.9 8.713-8.8s-3.861-8.8-8.713-8.8-8.713 3.9-8.713 8.8 3.861 8.8 8.713 8.8"/><path stroke="#b9b9b9" stroke-width="5" d="M49.802 68.1c25.842 0 46.832-8.1 46.832-18.1s-20.99-18.1-46.832-18.1S2.97 40 2.97 50s20.99 18.1 46.832 18.1Z"/><path stroke="#b9b9b9" stroke-width="5" d="M34.356 59c12.872 22.7 30.297 37 38.911 32 8.515-5 5.05-27.4-7.92-50C52.377 18.3 34.95 4 26.436 9c-8.614 5-5.05 27.4 7.92 50Z"/><path stroke="#b9b9b9" stroke-width="5" d="M34.356 41c-12.97 22.6-16.435 45-7.92 50s25.94-9.3 38.812-32c12.97-22.6 16.534-45 8.02-50-8.615-5-26.04 9.3-38.912 32Z"/></svg>